<?xml version="1.0" standalone="no"?><svg xmlns="http://www.w3.org/2000/svg" viewBox="0 0 1440 320"><path fill="#990000" fill-opacity="1" d="M0,32L18.5,32C36.9,32,74,32,111,32C147.7,32,185,32,222,64C258.5,96,295,160,332,176C369.2,192,406,160,443,176C480,192,517,256,554,234.7C590.8,213,628,107,665,96C701.5,85,738,171,775,197.3C812.3,224,849,192,886,160C923.1,128,960,96,997,96C1033.8,96,1071,128,1108,128C1144.6,128,1182,96,1218,101.3C1255.4,107,1292,149,1329,154.7C1366.2,160,1403,128,1422,112L1440,96L1440,320L1421.5,320C1403.1,320,1366,320,1329,320C1292.3,320,1255,320,1218,320C1181.5,320,1145,320,1108,320C1070.8,320,1034,320,997,320C960,320,923,320,886,320C849.2,320,812,320,775,320C738.5,320,702,320,665,320C627.7,320,591,320,554,320C516.9,320,480,320,443,320C406.2,320,369,320,332,320C295.4,320,258,320,222,320C184.6,320,148,320,111,320C73.8,320,37,320,18,320L0,320Z"></path></svg>